<?xml version="1.0" encoding="UTF-8" standalone="no"?>
<svg
   width="30.6878mm"
   height="30.6878mm"
   viewBox="0 0 87 87"
   version="1.1"
   id="svg42"
   xmlns="http://www.w3.org/2000/svg"
   xmlns:svg="http://www.w3.org/2000/svg">
  <defs
     id="defs46" />
  <rect
     style="fill:#000000;stroke-width:5.34991"
     id="rect423"
     width="87.062958"
     height="87.011635"
     x="0.065896824"
     y="0.1169082" />
  <path
     id="Selection #1"
     fill="none"
     stroke="#000000"
     stroke-width="1"
     d="m 80.53248,9.4941375 c 0.25,0 -21.01,-3.5 -21.12,-3.5 0,0.13 -17.229736,-5.13381091 -17.109736,-5.13381091 L 23.91248,6.2441375 c 0,0.13 -19.3799999,3 -19.3799999,3 0.11,0.11 -3.219288,38.8350235 12.5207119,58.7050235 0,0 4.780094,5.928346 6.919667,7.476096 3.87,3.34 14.918339,9.884476 18.288339,10.124476 3.86,-0.24 12.031282,-4.795596 14.891282,-7.055596 3.51,-2.76 9.72,-8.89 12.38,-12.5 11.62,-16.25 11,-39.92 11,-56.4999995 z m -4.5,3.4999995 c 0.25,0 -18.88,-3.2499995 -19,-3.2499995 0,0.13 -15,-3.87 -14.88,-3.87 l -16.5,4.3699995 c 0,0.13 -17.4999999,2.75 -17.4999999,2.75 0.11,0.11 -3.0909382,37.003614 12.2346529,53.967982 0,0 4.358821,4.614791 6.238821,6.224791 3.87,3.35 12.286526,8.057227 15.656526,8.307227 3.87,-0.25 11.88,-5.91 14.75,-8.17 3.51,-2.76 6.58,-5.72 9.24,-9.33 10.403646,-13.637855 9.76,-34.42 9.76,-51 z m -65.75,2.12 15.75,-2.62 16.12,-4.2499995 14.5,3.6299995 17.38,3.12 c -0.25,21.75 0,41.88 -17.25,55.88 -3.53,2.86 -10,8.24 -14.87,8.24 -3.63,0.13 -11.25,-5.33 -14.13,-7.87 -16.69,-14.74 -17.5,-35.56 -17.5,-56.13 z m 53.75,6.88 h -37 v 8 c 3.26,0 15.12,0.5 15.12,0.5 0,0 -0.16,5.36 -0.12,7.5 v 25 h 9 v -24 c 0.02,-2.35 -0.12,-8.5 -0.12,-8.5 0,0 10.11,-0.5 13.12,-0.5 z m -34,19 c 1.72,-0.01 8.62,0.38 8.88,0 0.24,-0.12 0,-7.75 0,-7.75 0,0 -6.9,-0.24 -8.88,-0.25 z m 9,3 h -9 v 19 h 9 z"
     style="fill:#333333" />
  <path
     id="rect479"
     style="fill:#003d00;stroke-width:1.5232"
     d="M 5.5662708,9.3997578 23.750897,6.8900062 42.991811,1.676145 61.161518,6.6390214 80.531483,10.157253 c 0,0 5.395278,65.623268 -38.029166,75.126899 C -2.4300924,71.98646 5.5662708,9.3997578 5.5662708,9.3997578 Z" />
  <path
     id="rect479-3"
     style="fill:#cccccc;stroke-width:1.4029"
     d="M 9.0323171,11.795361 25.450002,9.4372647 42.82134,4.5384592 59.225556,9.2014458 76.713405,12.507083 c 0,0 4.871036,61.657881 -34.333997,70.58724 C 1.8129343,70.600165 9.0323171,11.795361 9.0323171,11.795361 Z" />
  <path
     id="rect479-3-7"
     style="fill:#000000;stroke-width:1.33494"
     d="m 10.610982,13.424222 15.646625,-2.240393 16.55549,-4.6542828 15.633789,4.4302348 16.66653,3.140638 c 0,0 4.642266,58.580246 -32.721495,67.063899 C 3.7306588,69.293802 10.610982,13.424222 10.610982,13.424222 Z" />
  <g
     id="layer1">
    <rect
       style="fill:#f2f2f2;fill-opacity:1;stroke-width:0.720167"
       id="rect1951"
       width="7.9948521"
       height="6.9528627"
       x="31.443836"
       y="31.088461" />
    <rect
       style="fill:#f2f2f2;fill-opacity:1;stroke-width:0.858497"
       id="rect1953"
       width="7.8678408"
       height="22.215326"
       x="31.373491"
       y="39.544857" />
  </g>
  <g
     id="layer2">
    <rect
       style="fill:#f2f2f2;fill-opacity:1;stroke-width:0.764363"
       id="rect1956"
       width="36.241024"
       height="6.7525125"
       x="26.755764"
       y="22.389751" />
    <rect
       style="fill:#f2f2f2;fill-opacity:1;stroke-width:0.893389"
       id="rect1960"
       width="8.3755484"
       height="34.297935"
       x="41.094101"
       y="27.479124" />
  </g>
</svg>
